<?xml version="1.0" standalone="no"?>
<!DOCTYPE svg PUBLIC "-//W3C//DTD SVG 20010904//EN"
 "http://www.w3.org/TR/2001/REC-SVG-20010904/DTD/svg10.dtd">
<svg version="1.0" xmlns="http://www.w3.org/2000/svg"
 width="1280.000000pt" height="720.000000pt" viewBox="0 0 1280.000000 720.000000"
 preserveAspectRatio="xMidYMid meet">

<g transform="translate(0.000000,720.000000) scale(0.100000,-0.100000)"
fill="#000000" stroke="none">
<path d="M8738 7033 c6 -2 18 -2 25 0 6 3 1 5 -13 5 -14 0 -19 -2 -12 -5z"/>
<path d="M8568 7003 c6 -2 18 -2 25 0 6 3 1 5 -13 5 -14 0 -19 -2 -12 -5z"/>
<path d="M8475 6985 c-39 -14 -40 -14 -5 -8 41 7 82 22 60 22 -8 0 -33 -7 -55
-14z"/>
<path d="M8190 6890 c-8 -5 -10 -10 -5 -10 6 0 17 5 25 10 8 5 11 10 5 10 -5
0 -17 -5 -25 -10z"/>
<path d="M7817 6545 c-22 -41 -26 -45 -22 -20 l5 30 -15 -30 c-9 -19 -13 -43
-8 -65 3 -19 7 -42 8 -50 1 -8 6 -24 11 -35 7 -16 10 -10 15 30 4 28 14 76 23
108 23 79 15 93 -17 32z"/>
<path d="M7763 6415 c0 -22 2 -30 4 -17 2 12 2 30 0 40 -3 9 -5 -1 -4 -23z"/>
<path d="M10830 6405 c0 -3 8 -22 19 -43 18 -36 35 -102 26 -102 -2 0 -12 24
-20 54 -9 30 -22 60 -30 66 -19 16 -19 1 0 -24 8 -11 15 -29 15 -40 0 -22 20
-82 34 -104 5 -8 4 -18 -3 -25 -6 -6 -11 -20 -10 -31 0 -21 0 -21 10 -1 7 15
8 6 6 -31 -4 -52 -28 -112 -73 -181 -21 -33 -19 -32 21 12 55 62 58 46 5 -40
-46 -75 -23 -71 29 5 49 72 74 160 68 247 -3 58 -12 88 -45 157 -36 75 -52
100 -52 81z"/>
<path d="M4033 6293 c9 -2 23 -2 30 0 6 3 -1 5 -18 5 -16 0 -22 -2 -12 -5z"/>
<path d="M3948 6283 c6 -2 18 -2 25 0 6 3 1 5 -13 5 -14 0 -19 -2 -12 -5z"/>
<path d="M2620 6210 c20 -13 33 -13 25 0 -3 6 -14 10 -23 10 -15 0 -15 -2 -2
-10z"/>
<path d="M3328 6183 c6 -2 18 -2 25 0 6 3 1 5 -13 5 -14 0 -19 -2 -12 -5z"/>
<path d="M2670 6175 c0 -2 10 -10 23 -16 20 -11 21 -11 8 4 -13 16 -31 23 -31
12z"/>
<path d="M3195 6156 c-49 -13 -143 -40 -207 -60 -103 -33 -116 -40 -110 -56 9
-24 28 -25 25 -1 -2 13 22 24 115 53 64 20 155 47 202 58 82 21 109 31 79 29
-8 0 -54 -11 -104 -23z"/>
<path d="M5868 6153 c7 -3 16 -2 19 1 4 3 -2 6 -13 5 -11 0 -14 -3 -6 -6z"/>
<path d="M2745 6120 c3 -5 11 -10 16 -10 6 0 7 5 4 10 -3 6 -11 10 -16 10 -6
0 -7 -4 -4 -10z"/>
<path d="M2795 6090 c3 -5 8 -10 11 -10 2 0 4 5 4 10 0 6 -5 10 -11 10 -5 0
-7 -4 -4 -10z"/>
<path d="M6270 6027 c14 -8 36 -17 50 -21 l25 -7 -25 14 c-14 8 -36 17 -50 21
l-25 7 25 -14z"/>
<path d="M2940 6002 c0 -9 130 -85 136 -79 5 5 -115 87 -128 87 -4 0 -8 -4 -8
-8z"/>
<path d="M6425 5960 c44 -21 85 -39 90 -39 15 0 -116 65 -145 73 -14 3 11 -12
55 -34z"/>
<path d="M3140 5870 c0 -5 7 -10 16 -10 8 0 12 5 9 10 -3 6 -10 10 -16 10 -5
0 -9 -4 -9 -10z"/>
<path d="M6670 5841 c8 -7 35 -23 60 -36 41 -22 188 -115 235 -149 11 -8 38
-28 60 -44 124 -91 319 -294 395 -412 27 -41 55 -82 63 -92 9 -9 13 -18 11
-21 -3 -2 7 -26 21 -52 14 -26 25 -57 25 -67 0 -10 8 -33 17 -51 28 -53 60
-233 56 -317 -11 -281 -9 -266 -70 -397 -45 -98 -42 -113 6 -21 34 67 63 145
92 244 5 17 9 96 10 175 0 154 3 140 -73 359 -36 104 -101 221 -157 284 -20
23 -62 73 -93 112 -31 39 -85 96 -120 127 -107 94 -328 254 -423 306 -90 50
-146 75 -115 52z"/>
<path d="M3180 5820 c0 -5 5 -10 10 -10 6 0 10 5 10 10 0 6 -4 10 -10 10 -5 0
-10 -4 -10 -10z"/>
<path d="M3210 5799 c0 -5 5 -7 10 -4 6 3 10 8 10 11 0 2 -4 4 -10 4 -5 0 -10
-5 -10 -11z"/>
<path d="M10599 5753 c-13 -17 -13 -17 6 -3 11 8 22 16 24 17 2 2 0 3 -6 3 -6
0 -17 -8 -24 -17z"/>
<path d="M1721 5748 c-1 -18 -9 -22 -48 -18 -18 1 -23 -4 -23 -23 0 -21 -26
-41 -45 -34 -3 1 -12 -8 -20 -20 -10 -15 -26 -23 -44 -23 -35 0 -38 -4 -33
-40 5 -36 22 -40 22 -6 0 29 29 39 48 16 12 -13 13 -12 9 7 -6 26 19 54 28 31
4 -9 21 -14 49 -14 59 -1 79 -10 73 -34 -6 -24 18 -28 27 -5 7 20 56 19 71 -2
7 -9 26 -17 41 -18 23 0 29 -5 29 -21 0 -11 6 -28 13 -36 15 -18 52 -12 52 8
0 8 5 14 10 14 6 0 10 -8 10 -19 0 -27 24 -43 54 -35 28 7 38 -12 11 -22 -24
-10 -17 -22 15 -29 17 -4 30 -11 30 -16 0 -5 5 -9 11 -9 6 0 8 9 3 22 -6 19
-5 20 8 7 19 -19 32 -69 18 -69 -18 0 0 -21 28 -31 36 -14 49 4 21 30 -18 16
-20 24 -11 33 16 16 15 28 -3 28 -8 0 -19 9 -25 20 -6 10 -31 28 -56 39 -25
11 -81 48 -125 81 -44 33 -89 60 -100 60 -13 0 -24 10 -30 28 -7 21 -19 31
-47 38 -20 5 -36 15 -34 22 1 7 -4 12 -12 12 -8 0 -17 10 -19 23 -3 14 -5 16
-6 5z"/>
<path d="M10535 5718 c-16 -11 -22 -17 -12 -14 10 3 22 6 27 6 4 0 10 7 14 15
7 18 8 18 -29 -7z"/>
<path d="M10190 5595 c-47 -13 -78 -23 -70 -24 19 -1 160 35 168 43 8 9 -5 6
-98 -19z"/>
<path d="M1460 5561 c0 -20 -9 -35 -31 -52 -42 -31 -57 -71 -51 -128 2 -25 6
-47 7 -49 2 -2 17 4 33 12 28 14 30 19 25 56 -5 33 -3 40 11 40 27 0 37 42 14
58 -20 14 -14 37 7 28 8 -3 19 2 25 10 9 10 9 14 1 14 -6 0 -11 9 -11 20 0 11
-7 20 -15 20 -10 0 -15 -10 -15 -29z m-30 -102 c0 -5 -4 -9 -10 -9 -5 0 -10 7
-10 16 0 8 5 12 10 9 6 -3 10 -10 10 -16z m30 11 c0 -5 -2 -10 -4 -10 -3 0 -8
5 -11 10 -3 6 -1 10 4 10 6 0 11 -4 11 -10z"/>
<path d="M2870 5570 c-9 -6 -10 -10 -3 -10 6 0 15 5 18 10 8 12 4 12 -15 0z"/>
<path d="M10008 5553 c7 -3 16 -2 19 1 4 3 -2 6 -13 5 -11 0 -14 -3 -6 -6z"/>
<path d="M1800 5520 c0 -5 5 -10 10 -10 6 0 10 5 10 10 0 6 -4 10 -10 10 -5 0
-10 -4 -10 -10z"/>
<path d="M2779 5481 c-17 -23 -32 -30 -71 -35 -28 -4 -57 -13 -65 -21 -8 -8
-20 -18 -27 -22 -26 -16 -111 -158 -108 -180 3 -18 -1 -23 -20 -23 -13 0 -33
7 -44 15 -27 20 -40 19 -21 -3 21 -23 21 -32 1 -32 -8 0 -12 -5 -8 -11 4 -7
21 -9 43 -6 49 8 74 -11 65 -49 -7 -26 -6 -28 9 -15 10 7 17 19 17 26 0 8 8
11 20 8 11 -3 18 -9 15 -13 -3 -4 2 -10 10 -14 17 -6 21 -56 4 -56 -5 0 -7 -5
-3 -11 10 -16 19 0 34 61 7 30 19 64 26 75 8 11 14 27 14 36 0 9 11 37 25 60
14 24 25 50 25 58 0 17 53 126 76 159 9 12 14 22 11 22 -4 0 -16 -13 -28 -29z"/>
<path d="M2580 5471 c0 -6 5 -13 10 -16 6 -3 10 1 10 9 0 9 -4 16 -10 16 -5 0
-10 -4 -10 -9z"/>
<path d="M3945 5400 c28 -12 37 -12 30 0 -3 6 -16 10 -28 9 -21 0 -21 -1 -2
-9z"/>
<path d="M2200 5388 c1 -18 25 -48 39 -48 17 0 13 25 -7 43 -22 20 -32 21 -32
5z"/>
<path d="M2254 5313 c-4 -16 -11 -31 -17 -34 -5 -4 -1 -12 11 -18 17 -9 21 -7
26 15 9 34 30 25 36 -16 5 -35 26 -51 35 -28 13 32 -38 107 -72 108 -7 0 -16
-12 -19 -27z"/>
<path d="M1410 5314 c0 -8 5 -12 10 -9 6 4 8 11 5 16 -9 14 -15 11 -15 -7z"/>
<path d="M2375 5160 c4 -6 11 -8 16 -5 14 9 11 15 -7 15 -8 0 -12 -5 -9 -10z"/>
<path d="M1536 5015 c4 -8 7 -15 9 -15 2 0 5 7 9 15 3 9 0 15 -9 15 -9 0 -12
-6 -9 -15z"/>
<path d="M2593 4955 c0 -22 2 -30 4 -17 2 12 2 30 0 40 -3 9 -5 -1 -4 -23z"/>
<path d="M1327 4963 c-4 -3 -7 -11 -7 -17 0 -6 5 -5 12 2 6 6 9 14 7 17 -3 3
-9 2 -12 -2z"/>
<path d="M1301 4912 c-7 -13 -11 -28 -8 -35 2 -7 9 -2 16 11 7 13 11 28 8 35
-2 7 -9 2 -16 -11z"/>
<path d="M4170 4918 c-16 -7 -20 -12 -12 -15 8 -3 21 2 30 11 19 18 17 19 -18
4z"/>
<path d="M1422 4859 c6 -17 13 -28 16 -25 3 3 17 -11 30 -32 14 -20 31 -41 39
-45 7 -4 13 -15 13 -24 0 -22 59 -73 84 -73 12 0 25 -10 31 -22 15 -33 224
-129 284 -131 10 0 8 -4 -5 -14 -15 -11 -6 -13 72 -14 189 -3 270 -6 284 -11
8 -4 102 -9 208 -11 140 -4 192 -2 192 7 0 6 -9 26 -20 44 -11 18 -20 42 -20
55 0 24 -38 160 -39 140 -1 -7 -17 -15 -36 -19 -19 -3 -35 -10 -35 -14 0 -16
41 -22 57 -8 14 11 15 11 11 -2 -7 -20 -147 -16 -189 5 -16 9 -44 15 -62 13
-17 -1 -41 3 -52 10 -19 11 -19 11 5 12 18 0 21 3 12 12 -6 6 -34 11 -62 11
-36 0 -50 3 -50 13 0 10 -13 14 -40 14 -22 0 -73 11 -114 25 -41 14 -92 25
-114 25 -23 0 -43 5 -45 13 -4 9 -8 8 -16 -3 -9 -13 -12 -12 -17 6 -4 14 -17
24 -36 28 -42 8 -50 8 -43 -4 4 -6 1 -17 -5 -25 -7 -8 -9 -15 -4 -15 5 0 1 -7
-9 -14 -10 -8 -17 -22 -15 -33 2 -10 -2 -17 -9 -16 -9 2 -11 -10 -9 -37 2 -22
2 -40 0 -40 -2 0 -18 9 -36 20 -18 11 -40 20 -49 20 -30 0 -99 56 -143 116
-51 71 -81 91 -64 43z"/>
<path d="M4075 4870 c-3 -5 -1 -10 4 -10 6 0 11 5 11 10 0 6 -2 10 -4 10 -3 0
-8 -4 -11 -10z"/>
<path d="M1735 4860 c-3 -5 -1 -10 4 -10 6 0 11 5 11 10 0 6 -2 10 -4 10 -3 0
-8 -4 -11 -10z"/>
<path d="M1270 4839 c-7 -11 -10 -23 -7 -25 2 -2 9 7 15 21 14 30 7 33 -8 4z"/>
<path d="M3810 4849 c0 -5 5 -7 10 -4 6 3 10 8 10 11 0 2 -4 4 -10 4 -5 0 -10
-5 -10 -11z"/>
<path d="M2567 4812 c-5 -6 -5 -12 -2 -12 4 0 -1 -7 -10 -16 -9 -9 -14 -23
-11 -31 3 -8 6 -19 6 -24 0 -5 5 -9 10 -9 6 0 10 6 10 14 0 8 5 16 12 18 9 3
9 13 2 39 -6 22 -12 30 -17 21z"/>
<path d="M1227 4762 c-10 -10 -17 -26 -17 -35 0 -9 -5 -28 -12 -42 -8 -19 -8
-29 0 -37 8 -8 14 1 22 33 6 24 15 55 21 68 13 30 7 36 -14 13z"/>
<path d="M2520 4709 c0 -5 5 -7 10 -4 6 3 10 8 10 11 0 2 -4 4 -10 4 -5 0 -10
-5 -10 -11z"/>
<path d="M2445 4680 c-16 -7 -12 -9 18 -9 23 -1 36 3 32 9 -7 12 -23 12 -50 0z"/>
<path d="M3660 4620 c0 -5 4 -10 9 -10 6 0 13 5 16 10 3 6 -1 10 -9 10 -9 0
-16 -4 -16 -10z"/>
<path d="M1173 4593 c-10 -30 -9 -120 1 -130 10 -10 7 -20 -9 -36 -10 -11 -15
-38 -15 -94 -1 -200 89 -462 208 -605 31 -38 66 -81 77 -96 117 -158 198 -240
298 -298 34 -20 64 -39 67 -43 12 -17 142 -111 153 -110 7 0 3 6 -7 12 -11 7
-36 26 -55 43 -31 27 -141 105 -216 154 -35 24 -130 133 -171 198 -19 31 -53
75 -74 97 -63 65 -97 108 -105 135 -4 14 -16 39 -26 56 -11 17 -19 41 -19 53
0 12 -6 34 -14 49 -7 15 -17 43 -21 62 -4 19 -16 53 -26 75 -33 72 -57 228
-39 250 13 16 24 255 12 255 -5 0 -14 -12 -19 -27z"/>
<path d="M3730 4610 c-12 -8 -11 -10 7 -10 12 0 25 5 28 10 8 13 -15 13 -35 0z"/>
<path d="M3345 4599 c-12 -19 5 -23 22 -6 16 16 16 17 1 17 -9 0 -20 -5 -23
-11z"/>
<path d="M6349 4540 c-14 -8 -15 -16 -7 -50 6 -22 14 -40 19 -40 14 0 29 36
29 69 0 32 -12 38 -41 21z"/>
<path d="M3505 4491 c-3 -5 0 -13 5 -16 7 -5 5 -12 -7 -20 -24 -17 -8 -33 17
-17 11 7 28 12 37 12 23 1 59 28 49 37 -11 11 -94 14 -101 4z"/>
<path d="M3326 4422 c-3 -6 -1 -14 5 -17 15 -10 25 3 12 16 -7 7 -13 7 -17 1z"/>
<path d="M3586 4383 c-11 -11 -6 -23 9 -23 8 0 15 4 15 9 0 13 -16 22 -24 14z"/>
<path d="M2610 4350 c0 -5 5 -10 10 -10 6 0 10 5 10 10 0 6 -4 10 -10 10 -5 0
-10 -4 -10 -10z"/>
<path d="M3515 4308 c20 -34 28 -39 36 -26 10 15 12 34 3 25 -4 -3 -16 -2 -27
4 -15 9 -18 8 -12 -3z"/>
<path d="M3346 4283 c-27 -23 -28 -26 -13 -38 10 -7 15 -19 11 -28 -8 -22 14
-59 34 -55 18 3 27 54 11 63 -5 4 -9 10 -9 16 0 12 27 12 32 0 5 -16 56 0 61
19 9 35 -30 53 -53 25 -17 -20 -25 -19 -36 4 -9 19 -10 19 -38 -6z"/>
<path d="M6438 4240 c-7 -43 -4 -59 8 -48 3 3 4 26 2 49 l-3 44 -7 -45z"/>
<path d="M3485 4200 c-3 -5 1 -10 9 -10 9 0 16 5 16 10 0 6 -4 10 -9 10 -6 0
-13 -4 -16 -10z"/>
<path d="M3277 4176 c-6 -14 0 -26 14 -26 8 0 6 26 -3 35 -3 3 -8 -1 -11 -9z"/>
<path d="M3220 4160 c0 -5 5 -10 10 -10 6 0 10 5 10 10 0 6 -4 10 -10 10 -5 0
-10 -4 -10 -10z"/>
<path d="M7595 4140 c-4 -12 -5 -24 -2 -27 3 -2 8 5 12 17 4 12 5 24 2 27 -3
2 -8 -5 -12 -17z"/>
<path d="M7720 4130 c0 -5 5 -10 10 -10 6 0 10 5 10 10 0 6 -4 10 -10 10 -5 0
-10 -4 -10 -10z"/>
<path d="M3330 4084 c0 -39 13 -73 22 -58 17 30 16 62 -2 79 -20 18 -20 17
-20 -21z"/>
<path d="M7483 4057 c-31 -58 -63 -137 -57 -137 7 0 88 170 83 175 -3 2 -14
-15 -26 -38z"/>
<path d="M7602 4070 c0 -14 2 -19 5 -12 2 6 2 18 0 25 -3 6 -5 1 -5 -13z"/>
<path d="M7660 4068 c0 -19 2 -20 10 -8 13 19 13 30 0 30 -5 0 -10 -10 -10
-22z"/>
<path d="M5931 4066 c-9 -10 -8 -15 3 -19 14 -5 36 10 36 25 0 13 -27 9 -39
-6z"/>
<path d="M7728 4040 c2 -22 9 -40 14 -40 6 0 7 7 4 16 -3 9 -6 27 -6 40 0 13
-3 24 -8 24 -4 0 -6 -18 -4 -40z"/>
<path d="M7795 4070 c3 -5 8 -10 11 -10 2 0 4 5 4 10 0 6 -5 10 -11 10 -5 0
-7 -4 -4 -10z"/>
<path d="M7548 4031 c-13 -22 -42 -74 -66 -115 -23 -41 -62 -101 -86 -134 -24
-32 -48 -68 -54 -78 -6 -11 -38 -47 -71 -79 -63 -61 -86 -98 -28 -46 71 64 81
71 87 61 7 -12 40 -3 40 11 0 5 13 6 29 3 24 -5 35 -1 55 21 14 16 26 24 26
19 0 -20 20 23 20 44 0 13 6 22 15 22 10 0 15 -10 15 -30 0 -22 4 -28 15 -24
9 4 13 13 10 23 -3 9 -1 31 5 50 6 23 6 38 -3 52 -14 22 -39 26 -31 4 4 -8 3
-27 0 -41 -6 -21 -9 -24 -21 -14 -22 18 -17 98 5 85 4 -3 11 2 14 11 4 12 1
14 -13 9 -16 -5 -18 -2 -14 15 3 11 14 27 25 34 10 7 18 17 17 22 -1 5 1 18 6
29 29 72 34 85 30 85 -2 0 -14 -18 -27 -39z m-80 -221 c1 -28 -11 -40 -21 -22
-5 7 9 52 16 52 2 0 4 -13 5 -30z m0 -57 c2 -8 -6 -13 -22 -13 -19 0 -24 4
-19 15 6 18 34 16 41 -2z m-65 -16 c-3 -14 2 -31 12 -40 22 -22 7 -22 -17 0
-18 16 -18 16 -12 -2 5 -13 4 -16 -4 -11 -16 10 -15 27 4 54 19 28 22 28 17
-1z m-53 -67 c0 -5 -4 -10 -10 -10 -5 0 -10 5 -10 10 0 6 5 10 10 10 6 0 10
-4 10 -10z"/>
<path d="M7611 4014 c0 -11 3 -14 6 -6 3 7 2 16 -1 19 -3 4 -6 -2 -5 -13z"/>
<path d="M7671 4014 c0 -11 3 -14 6 -6 3 7 2 16 -1 19 -3 4 -6 -2 -5 -13z"/>
<path d="M7795 4000 c3 -5 8 -10 11 -10 2 0 4 5 4 10 0 6 -5 10 -11 10 -5 0
-7 -4 -4 -10z"/>
<path d="M2985 3989 c-4 -6 -1 -15 6 -20 21 -13 31 -11 27 8 -4 20 -24 28 -33
12z"/>
<path d="M7600 3981 c0 -5 5 -13 10 -16 6 -3 10 -2 10 4 0 5 -4 13 -10 16 -5
3 -10 2 -10 -4z"/>
<path d="M7667 3983 c-7 -11 10 -40 18 -31 4 4 3 14 -3 24 -5 9 -12 12 -15 7z"/>
<path d="M7730 3961 c0 -6 5 -13 10 -16 6 -3 10 1 10 9 0 9 -4 16 -10 16 -5 0
-10 -4 -10 -9z"/>
<path d="M7800 3960 c0 -5 5 -10 10 -10 6 0 10 5 10 10 0 6 -4 10 -10 10 -5 0
-10 -4 -10 -10z"/>
<path d="M7860 3951 c0 -6 5 -13 10 -16 6 -3 10 1 10 9 0 9 -4 16 -10 16 -5 0
-10 -4 -10 -9z"/>
<path d="M7380 3868 c-12 -22 -12 -22 6 -6 10 10 15 20 12 24 -4 3 -12 -5 -18
-18z"/>
<path d="M7588 3823 c-5 -25 3 -63 13 -63 12 0 12 67 0 75 -5 3 -11 -3 -13
-12z"/>
<path d="M7336 3814 c-23 -23 -20 -30 4 -9 11 10 20 20 20 22 0 7 -9 2 -24
-13z"/>
<path d="M6048 3780 c-24 -5 -25 -7 -13 -24 13 -17 15 -17 30 -2 9 9 24 16 33
16 9 0 24 5 32 10 16 10 -27 10 -82 0z"/>
<path d="M7925 3780 c-3 -5 -12 -7 -20 -3 -8 3 -15 0 -15 -7 0 -6 10 -10 23
-8 17 2 21 -1 19 -15 -2 -10 2 -25 8 -32 7 -8 8 -20 4 -26 -4 -7 -3 -9 3 -6
14 9 24 -17 17 -40 -4 -12 -3 -14 3 -6 8 12 36 3 33 -11 -1 -3 2 -25 6 -49 l7
-42 14 35 c13 30 13 35 -1 46 -9 6 -13 14 -9 18 4 4 1 11 -6 15 -19 12 -3 33
20 26 32 -10 22 8 -34 63 -55 54 -62 58 -72 42z"/>
<path d="M4490 3750 c0 -5 5 -10 10 -10 6 0 10 5 10 10 0 6 -4 10 -10 10 -5 0
-10 -4 -10 -10z"/>
<path d="M6000 3730 c0 -5 5 -10 10 -10 6 0 10 5 10 10 0 6 -4 10 -10 10 -5 0
-10 -4 -10 -10z"/>
<path d="M7601 3724 c0 -11 3 -14 6 -6 3 7 2 16 -1 19 -3 4 -6 -2 -5 -13z"/>
<path d="M7169 3628 c-30 -35 -61 -72 -69 -82 -13 -18 -13 -19 1 -10 23 13
139 154 127 154 -2 0 -29 -28 -59 -62z"/>
<path d="M7916 3621 c-4 -7 -5 -15 -2 -18 9 -9 19 4 14 18 -4 11 -6 11 -12 0z"/>
<path d="M7320 3610 c20 -13 33 -13 25 0 -3 6 -14 10 -23 10 -15 0 -15 -2 -2
-10z"/>
<path d="M5731 3584 c-19 -13 -47 -24 -62 -24 -18 0 -29 -5 -29 -13 0 -11 11
-12 57 -5 64 10 83 21 83 49 0 24 -7 23 -49 -7z"/>
<path d="M7298 3593 c7 -3 16 -2 19 1 4 3 -2 6 -13 5 -11 0 -14 -3 -6 -6z"/>
<path d="M7960 3591 c0 -6 5 -13 10 -16 6 -3 10 1 10 9 0 9 -4 16 -10 16 -5 0
-10 -4 -10 -9z"/>
<path d="M7760 3560 c0 -5 5 -10 10 -10 6 0 10 5 10 10 0 6 -4 10 -10 10 -5 0
-10 -4 -10 -10z"/>
<path d="M7185 3540 c3 -5 11 -10 16 -10 6 0 7 5 4 10 -3 6 -11 10 -16 10 -6
0 -7 -4 -4 -10z"/>
<path d="M8125 3508 c14 -11 24 -26 21 -33 -6 -16 108 -113 135 -115 3 0 6 14
6 30 0 17 -3 30 -7 30 -3 0 -21 13 -39 29 -28 25 -30 29 -14 36 15 6 12 9 -17
20 -19 6 -52 15 -73 18 l-38 6 26 -21z"/>
<path d="M7042 3490 c-12 -12 -22 -24 -22 -27 0 -4 11 4 25 17 23 22 29 30 22
30 -2 0 -13 -9 -25 -20z"/>
<path d="M6905 3397 c-45 -28 -123 -84 -175 -123 -114 -85 -162 -114 -255
-150 -38 -15 -80 -36 -93 -48 -13 -12 -25 -20 -28 -18 -9 5 -25 1 -21 -5 3 -5
-8 -8 -25 -9 -16 -1 -35 -7 -41 -13 -9 -9 -8 -11 6 -6 9 4 17 3 17 -2 0 -5
-17 -15 -37 -21 -36 -10 -37 -10 -18 5 23 18 22 18 -105 -32 -52 -20 -99 -42
-105 -49 -5 -7 -23 -16 -40 -20 -73 -17 -224 -69 -220 -76 2 -4 -7 -5 -22 -2
-16 3 -24 1 -20 -5 9 -15 -109 -71 -178 -85 -33 -6 -72 -20 -87 -31 -21 -16
-36 -19 -71 -14 -24 3 -62 1 -83 -5 l-39 -11 30 -8 c36 -10 79 -5 210 28 196
48 376 99 490 140 39 14 97 34 130 46 33 11 55 22 50 24 -6 1 -48 -11 -95 -27
-217 -77 -296 -101 -330 -98 -30 3 -10 12 125 61 88 32 207 75 265 96 149 55
557 264 595 305 20 22 84 66 96 66 7 0 28 12 48 27 39 29 122 113 112 113 -3
0 -42 -24 -86 -53z m-845 -467 c0 -5 -5 -10 -11 -10 -5 0 -7 5 -4 10 3 6 8 10
11 10 2 0 4 -4 4 -10z m-235 -90 c-3 -5 -14 -10 -23 -10 -15 0 -15 2 -2 10 20
13 33 13 25 0z"/>
<path d="M2780 3410 c-13 -8 -12 -10 3 -10 9 0 17 5 17 10 0 12 -1 12 -20 0z"/>
<path d="M3837 3404 c-4 -4 -24 -10 -44 -13 -23 -4 -38 -12 -38 -21 0 -10 18
-14 76 -16 42 -1 91 -5 108 -9 38 -8 43 15 8 38 -26 17 -99 31 -110 21z"/>
<path d="M3590 3371 c0 -6 13 -11 29 -11 16 0 38 -3 48 -6 14 -4 15 -4 3 4
-25 16 -80 25 -80 13z"/>
<path d="M8546 3372 c-3 -5 -8 -28 -12 -51 -5 -31 -13 -45 -33 -55 l-26 -14
38 -7 c36 -7 61 -25 35 -25 -16 -1 28 -25 62 -34 l25 -7 -25 15 c-29 18 -21
19 35 6 166 -37 239 -49 299 -50 68 0 68 0 62 25 -4 14 -1 33 5 42 7 13 7 26
0 45 -8 22 -18 28 -58 33 -80 11 -196 35 -293 60 -102 28 -107 28 -114 17z
m387 -128 c31 -3 57 -10 57 -15 0 -12 -108 1 -145 17 l-30 14 30 -5 c17 -2 56
-7 88 -11z"/>
<path d="M2661 3348 c0 -10 -5 -18 -11 -18 -5 0 -10 -6 -10 -14 0 -9 8 -12 26
-8 14 2 21 7 16 11 -5 3 -12 15 -15 26 -4 16 -5 17 -6 3z"/>
<path d="M4010 3330 c-9 -6 -10 -10 -3 -10 6 0 15 5 18 10 8 12 4 12 -15 0z"/>
<path d="M8335 3315 c36 -30 96 -56 118 -53 17 3 9 10 -35 30 -31 14 -67 29
-80 33 -23 6 -23 6 -3 -10z"/>
<path d="M9463 3300 c-13 -5 -23 -17 -23 -25 0 -9 -4 -14 -9 -11 -13 8 -28
-14 -36 -51 -8 -40 -1 -41 109 -17 67 15 73 19 63 34 -11 19 3 41 33 52 23 8
-34 28 -78 27 -20 0 -47 -4 -59 -9z"/>
<path d="M2545 3281 c-3 -6 -27 -10 -53 -10 -26 0 -57 -3 -68 -8 -18 -7 -20
-12 -11 -33 8 -19 11 -21 14 -9 4 18 32 29 73 29 14 0 48 9 75 20 l50 19 -37
1 c-20 0 -39 -4 -43 -9z"/>
<path d="M9160 3210 l-35 -6 35 -6 c19 -3 39 -2 43 2 14 12 -5 17 -43 10z"/>
<path d="M6726 3185 c-14 -11 -16 -15 -5 -15 8 0 23 7 33 15 14 11 16 15 5 15
-8 0 -23 -7 -33 -15z"/>
<path d="M2240 3170 c-12 -8 -11 -10 8 -10 12 0 22 5 22 10 0 13 -11 13 -30 0z"/>
<path d="M6467 3053 c-125 -64 -225 -118 -223 -120 6 -6 443 214 451 227 8 13
28 23 -228 -107z"/>
<path d="M2245 3026 c11 -8 24 -12 28 -9 11 7 -12 23 -32 23 -11 0 -9 -4 4
-14z"/>
<path d="M2470 2935 c0 -9 146 -73 251 -110 52 -18 131 -39 175 -45 43 -7 115
-22 159 -33 220 -54 454 -99 506 -96 34 1 -36 18 -140 33 -62 9 -121 20 -130
25 -9 5 -34 11 -56 15 -22 4 -60 13 -85 21 -54 16 -167 39 -269 56 -83 13
-204 52 -301 97 -72 34 -110 46 -110 37z"/>
<path d="M6200 2920 c-8 -5 -10 -10 -5 -10 6 0 17 5 25 10 8 5 11 10 5 10 -5
0 -17 -5 -25 -10z"/>
<path d="M5645 2810 c-13 -6 -15 -9 -5 -9 8 0 22 4 30 9 18 12 2 12 -25 0z"/>
<path d="M5365 2743 c-11 -2 -58 -12 -105 -23 -47 -10 -112 -23 -145 -28 -51
-8 -54 -10 -20 -10 43 -1 300 50 311 61 8 7 -8 7 -41 0z"/>
<path d="M5755 2730 c-19 -8 -19 -9 2 -9 12 -1 25 4 28 9 7 12 -2 12 -30 0z"/>
<path d="M2905 2710 c33 -11 78 -22 100 -25 27 -4 17 1 -30 15 -93 28 -146 35
-70 10z"/>
<path d="M5390 2720 c-12 -8 -10 -10 10 -10 14 0 32 5 40 10 12 8 10 10 -10
10 -14 0 -32 -5 -40 -10z"/>
<path d="M5593 2688 c-46 -11 -83 -24 -83 -28 0 -11 66 -5 82 8 8 6 33 14 56
18 23 4 45 11 48 15 7 12 -7 10 -103 -13z"/>
<path d="M3058 2673 c6 -2 18 -2 25 0 6 3 1 5 -13 5 -14 0 -19 -2 -12 -5z"/>
<path d="M5018 2673 c6 -2 18 -2 25 0 6 3 1 5 -13 5 -14 0 -19 -2 -12 -5z"/>
<path d="M3140 2660 c14 -4 34 -8 45 -8 16 0 15 2 -5 8 -14 4 -34 8 -45 8 -16
0 -15 -2 5 -8z"/>
<path d="M4888 2663 c7 -3 16 -2 19 1 4 3 -2 6 -13 5 -11 0 -14 -3 -6 -6z"/>
<path d="M3581 2655 c3 -2 128 -13 278 -25 278 -20 553 -25 626 -11 24 5 -41
8 -165 7 -124 -1 -281 6 -397 17 -181 16 -352 22 -342 12z"/>
<path d="M4738 2653 c23 -2 59 -2 80 0 20 2 1 4 -43 4 -44 0 -61 -2 -37 -4z"/>
<path d="M4975 2639 c-71 -11 -177 -26 -235 -34 -58 -8 -153 -15 -211 -15
-224 0 -470 -13 -459 -24 7 -7 100 -11 283 -11 282 1 419 12 640 56 55 10 103
16 109 13 11 -7 58 15 58 28 0 11 -34 9 -185 -13z"/>
<path d="M5385 2638 c-117 -25 -219 -41 -388 -63 -100 -13 -137 -21 -133 -30
2 -7 -1 -18 -7 -24 -8 -8 -7 -11 6 -11 9 0 17 5 17 11 0 7 17 10 45 7 25 -2
45 1 45 5 0 5 9 5 20 2 11 -3 20 -2 20 3 0 5 23 10 52 11 29 1 61 8 73 15 13
9 28 10 43 5 14 -5 22 -5 22 2 0 6 13 8 33 5 24 -5 27 -4 12 3 -15 7 -2 10 50
11 43 1 63 4 51 9 -18 7 -19 8 -2 14 10 4 25 2 32 -4 8 -6 14 -7 14 -2 0 5 25
17 55 27 30 9 55 19 55 22 0 6 -15 4 -115 -18z"/>
<path d="M4668 2643 c7 -3 16 -2 19 1 4 3 -2 6 -13 5 -11 0 -14 -3 -6 -6z"/>
<path d="M3268 2633 c7 -3 16 -2 19 1 4 3 -2 6 -13 5 -11 0 -14 -3 -6 -6z"/>
<path d="M4553 2633 c15 -2 37 -2 50 0 12 2 0 4 -28 4 -27 0 -38 -2 -22 -4z"/>
<path d="M3355 2615 c84 -19 322 -48 337 -42 8 4 7 6 -4 6 -9 1 -92 12 -184
26 -179 27 -247 31 -149 10z"/>
<path d="M3740 2590 c14 -4 39 -8 55 -8 29 0 29 0 5 8 -14 4 -38 8 -55 8 -29
0 -29 0 -5 -8z"/>
<path d="M3948 2553 c12 -2 32 -2 45 0 12 2 2 4 -23 4 -25 0 -35 -2 -22 -4z"/>
<path d="M4673 2540 c-57 -3 -106 -9 -109 -13 -4 -4 0 -7 10 -7 9 0 27 -17 39
-37 22 -38 22 -38 25 -11 3 23 8 26 38 26 30 0 34 -3 28 -20 -6 -19 -5 -19 13
-1 13 13 15 19 6 21 -7 2 -13 10 -13 18 0 11 13 14 55 13 31 -1 61 3 67 9 13
13 12 13 -159 2z"/>
<path d="M3827 2523 c-4 -3 -7 -20 -6 -37 l1 -31 9 34 c10 33 8 47 -4 34z"/>
<path d="M3953 2523 c-18 -7 -16 -20 6 -42 19 -19 19 -19 25 5 10 37 -1 50
-31 37z"/>
<path d="M4046 2518 c-10 -31 -13 -98 -5 -98 5 0 9 11 9 24 0 14 4 36 10 50 6
16 6 27 0 31 -6 4 -12 0 -14 -7z"/>
<path d="M4210 2519 c-36 -3 -55 -6 -42 -7 12 -1 22 -6 22 -10 0 -4 9 -8 20
-8 11 0 20 4 20 9 0 5 7 4 15 -3 10 -9 15 -9 15 -1 0 16 29 14 46 -4 8 -8 22
-11 31 -8 11 4 14 3 9 -6 -6 -9 -3 -9 13 1 12 7 21 16 21 20 0 5 9 8 21 8 11
0 17 -4 14 -10 -3 -5 1 -10 9 -10 29 0 18 30 -11 31 -104 4 -146 3 -203 -2z"/>
<path d="M4490 2521 c0 -5 15 -15 33 -22 17 -7 35 -14 40 -17 4 -2 7 3 7 12 0
9 -7 16 -15 16 -8 0 -15 5 -15 10 0 6 -11 10 -25 10 -14 0 -25 -4 -25 -9z"/>
<path d="M4119 2518 c0 -2 -2 -25 -5 -53 -4 -48 -4 -49 10 -25 17 28 21 80 6
80 -5 0 -10 -1 -11 -2z"/>
<path d="M4450 2485 c0 -8 5 -15 10 -15 6 0 10 7 10 15 0 8 -4 15 -10 15 -5 0
-10 -7 -10 -15z"/>
<path d="M3892 2440 c0 -14 2 -19 5 -12 2 6 2 18 0 25 -3 6 -5 1 -5 -13z"/>
<path d="M8830 2446 l24 -14 -42 -12 c-24 -6 -52 -8 -63 -5 -26 8 -19 15 23
25 l33 8 -40 1 c-91 2 -281 -66 -343 -123 -29 -25 -52 -68 -52 -94 0 -39 31
-121 60 -157 16 -20 27 -41 24 -46 -3 -5 0 -8 6 -7 7 2 17 -5 23 -14 9 -14 5
-25 -21 -57 -24 -30 -29 -41 -17 -41 9 0 15 -9 15 -21 0 -17 -5 -20 -21 -16
-37 10 -15 -17 53 -63 79 -53 86 -59 61 -56 -10 2 -24 -1 -30 -7 -9 -6 -13 -6
-13 2 0 8 -5 8 -19 -1 -10 -6 -17 -18 -14 -25 12 -32 -6 -8 -32 41 -32 62 -55
76 -137 83 -130 12 -300 -55 -398 -157 -30 -31 -61 -65 -68 -74 -17 -21 -62
-123 -57 -128 2 -2 0 -21 -5 -42 -5 -25 -4 -54 4 -87 7 -27 11 -51 8 -53 -2
-3 -15 -1 -28 4 -35 14 -31 -9 7 -48 26 -26 28 -33 15 -38 -9 -3 -16 -10 -16
-16 0 -5 5 -6 10 -3 6 4 22 0 35 -9 14 -9 27 -16 30 -16 11 1 34 -28 40 -51 6
-26 -16 -90 -45 -127 -13 -16 -17 -33 -13 -57 4 -23 2 -35 -6 -35 -6 0 -11 5
-11 10 0 16 -177 97 -238 109 -89 18 -114 15 -150 -21 -17 -18 -38 -51 -48
-73 -9 -22 -21 -43 -28 -47 -6 -4 -10 -29 -9 -60 3 -64 -4 -101 -17 -93 -9 5
-15 -23 -11 -47 0 -5 -3 -8 -9 -8 -5 0 -10 7 -10 15 0 8 -3 14 -7 14 -22 -4
-32 2 -27 15 3 8 -6 25 -20 37 -14 13 -26 30 -26 38 0 13 -2 13 -9 2 -5 -7
-14 -10 -20 -7 -6 4 -9 11 -6 16 9 14 -15 22 -30 10 -19 -16 -31 -6 -46 38
-20 63 -116 241 -154 288 -50 61 -131 120 -183 134 -41 11 -87 6 -78 -8 2 -4
-33 -8 -78 -9 -124 -2 -183 -32 -217 -109 -17 -38 -20 -62 -19 -162 1 -37 31
-119 63 -172 95 -155 208 -264 367 -356 107 -62 237 -76 302 -32 14 10 31 18
36 18 6 0 18 9 26 21 8 12 19 18 25 14 6 -3 11 -1 11 5 0 6 4 9 9 5 5 -3 16 2
24 10 9 8 20 15 26 15 6 0 11 9 11 19 0 51 59 34 110 -33 22 -28 54 -71 72
-95 41 -55 99 -111 115 -111 7 0 16 -6 20 -14 4 -8 42 -27 84 -43 101 -40 211
-45 252 -13 l27 21 0 -20 c0 -28 8 -26 38 6 19 21 22 30 14 44 -8 13 -8 20 3
29 16 13 17 11 19 -29 1 -29 26 -41 26 -13 0 11 6 25 14 31 11 9 12 19 4 45
-6 19 -8 41 -5 50 9 23 36 19 47 -6 7 -19 9 -16 9 20 1 41 -11 56 -22 28 -6
-15 -47 -11 -47 5 0 9 41 34 51 31 4 0 20 3 37 7 16 5 35 5 43 0 17 -10 29 7
29 44 0 27 13 36 25 17 4 -6 23 -7 45 -4 31 5 41 3 46 -10 9 -22 24 -20 24 3
0 26 15 34 30 16 7 -8 16 -12 22 -9 5 3 15 0 23 -6 8 -7 15 -10 15 -6 0 4 10
0 23 -9 30 -19 238 -38 274 -24 14 5 67 9 118 8 76 -1 99 2 140 22 28 12 55
22 62 21 6 -2 14 2 18 8 3 5 15 10 26 10 10 0 19 4 19 9 0 16 32 21 134 25 63
2 100 7 105 15 4 7 17 13 29 14 11 0 26 12 32 26 8 18 14 21 19 12 6 -9 10 -5
15 14 5 21 10 25 19 16 17 -17 37 -13 37 9 0 11 5 20 10 20 6 0 10 -5 10 -11
0 -5 5 -7 10 -4 6 4 8 11 5 16 -4 5 1 12 10 15 10 4 13 13 10 24 -4 13 1 20
14 25 11 3 20 12 18 18 -1 7 8 12 21 11 12 0 22 4 22 9 0 5 18 7 41 4 33 -4
39 -3 35 10 -3 8 -6 21 -6 29 0 8 -4 14 -10 14 -5 0 -10 -7 -10 -15 0 -8 -9
-15 -20 -15 -11 0 -20 4 -20 9 0 13 30 35 51 36 28 2 35 14 16 28 -15 11 -15
14 1 32 9 11 25 20 36 20 17 0 19 8 17 100 -1 55 3 114 8 130 5 17 10 24 10
16 1 -11 4 -11 16 -1 13 11 15 8 16 -16 0 -16 3 -22 6 -14 15 46 15 46 23 25
9 -20 9 -20 9 0 1 12 8 21 19 22 57 3 124 12 129 17 3 3 35 3 71 0 56 -5 67
-4 79 12 12 17 13 17 13 -1 0 -17 2 -16 25 5 17 16 21 26 14 31 -8 5 -8 8 1
11 9 3 12 25 11 68 -1 49 -7 74 -28 109 -14 25 -29 48 -32 51 -3 3 -20 25 -36
49 -17 25 -48 61 -70 82 l-40 37 26 24 c28 26 103 53 120 42 18 -11 79 6 79
22 0 8 7 17 15 20 21 8 19 21 -4 29 -13 4 -17 12 -14 26 5 19 3 20 -18 14 -13
-4 -34 -13 -46 -21 -28 -18 -37 -18 -30 0 3 7 -12 30 -34 52 -21 21 -39 41
-39 44 0 4 15 22 34 41 32 33 34 34 57 20 13 -9 30 -24 37 -33 18 -25 30 -22
44 8 l12 26 10 -24 9 -23 4 23 c9 48 -120 200 -232 276 -70 46 -195 109 -285
141 -123 44 -273 33 -286 -21 -6 -22 -11 -25 -38 -21 -17 2 -83 12 -146 22
-63 9 -122 20 -130 25 -29 15 -200 40 -278 40 -71 -1 -75 -2 -52 -14z m16 -71
c-18 -14 -96 -22 -96 -10 0 10 45 24 80 24 33 0 34 -1 16 -14z m-276 -25 c-20
-13 -43 -13 -35 0 3 6 16 10 28 10 18 0 19 -2 7 -10z m-55 -20 c-3 -5 -11 -10
-16 -10 -6 0 -7 5 -4 10 3 6 11 10 16 10 6 0 7 -4 4 -10z m225 -35 c0 -16 -17
-19 -46 -8 -16 6 -16 7 2 14 30 12 44 10 44 -6z m-270 -135 c0 -5 -4 -10 -10
-10 -5 0 -10 5 -10 10 0 6 5 10 10 10 6 0 10 -4 10 -10z m-2 -50 c18 -1 78
-48 70 -56 -8 -7 -71 18 -95 39 -13 12 -23 31 -23 46 l1 26 15 -27 c8 -16 22
-28 32 -28z m352 21 c0 -12 -29 -23 -41 -15 -5 3 -7 10 -4 15 8 12 45 12 45 0z
m-270 -186 c0 -8 -7 -15 -15 -15 -16 0 -20 12 -8 23 11 12 23 8 23 -8z m1146
-136 c3 -6 1 -15 -7 -19 -16 -10 -52 7 -44 21 8 13 42 11 51 -2z m-1516 -14
c0 -8 -4 -15 -10 -15 -5 0 -10 7 -10 15 0 8 5 15 10 15 6 0 10 -7 10 -15z
m920 -5 c0 -5 -15 -10 -32 -9 -28 0 -30 2 -13 9 28 12 45 12 45 0z m-960 -50
c-6 -11 -17 -20 -25 -20 -8 0 -23 -10 -35 -22 -11 -12 -20 -17 -20 -11 0 12
69 73 83 73 4 0 3 -9 -3 -20z m775 -10 c-28 -12 -47 -12 -40 0 3 6 18 10 33 9
24 0 25 -1 7 -9z m255 -19 c0 -6 -5 -13 -11 -16 -14 -9 -144 -17 -136 -9 5 5
88 25 140 33 4 0 7 -3 7 -8z m-1225 -101 c-26 -39 -49 -69 -51 -67 -7 7 7 37
17 37 5 0 9 6 9 13 0 17 60 101 67 94 2 -3 -17 -37 -42 -77z m1051 65 c-22
-17 -56 -20 -56 -6 0 9 25 17 60 19 11 1 10 -3 -4 -13z m-964 -28 c-12 -13
-22 -28 -22 -34 0 -6 -15 -28 -34 -49 -34 -38 -34 -40 -35 -132 0 -52 -3 -97
-6 -100 -13 -13 -25 26 -25 85 0 79 33 166 78 207 18 17 39 36 45 42 22 22 21
4 -1 -19z m128 18 c0 -8 -4 -15 -9 -15 -5 0 -17 -22 -26 -50 -9 -27 -21 -52
-26 -55 -5 -4 -9 -16 -9 -29 0 -13 -7 -37 -16 -54 -8 -17 -20 -62 -26 -99 -5
-38 -12 -70 -15 -73 -13 -12 9 154 24 186 19 39 11 55 -16 30 -26 -23 -34 -66
-33 -163 1 -80 -11 -112 -22 -55 -17 89 -17 114 -1 163 13 38 27 58 55 77 24
17 51 50 72 90 32 61 48 76 48 47z m-266 -57 c-8 -28 -12 -33 -20 -25 -9 8 6
47 17 47 6 0 7 -10 3 -22z m873 5 c-9 -9 -20 -13 -24 -9 -4 4 -1 11 7 16 25
16 35 11 17 -7z m38 -43 c-21 -23 -35 -26 -35 -6 0 15 14 24 39 25 11 1 10 -4
-4 -19z m-948 -30 c-4 -16 -2 -32 4 -36 6 -3 9 -20 6 -38 -5 -32 20 -120 54
-190 10 -22 17 -41 15 -43 -9 -9 -35 11 -38 30 -2 12 -9 21 -15 20 -7 -2 -21
10 -32 25 -34 49 -30 262 6 262 3 0 3 -13 0 -30z m388 -80 c0 -7 -10 -16 -22
-21 -26 -10 -28 -6 -11 21 14 22 33 22 33 0z m103 -18 c3 -17 -2 -22 -17 -22
-22 0 -25 8 -15 35 9 22 28 14 32 -13z m-211 -89 c-9 -9 -20 -13 -24 -9 -4 4
1 14 11 22 25 18 35 8 13 -13z m1523 -33 c0 -5 -4 -10 -10 -10 -5 0 -10 5 -10
10 0 6 5 10 10 10 6 0 10 -4 10 -10z m-846 -66 c18 -12 12 -13 -50 -8 -137 10
-174 16 -174 26 0 16 199 0 224 -18z m-389 -4 c-3 -5 -11 -10 -16 -10 -6 0 -7
5 -4 10 3 6 11 10 16 10 6 0 7 -4 4 -10z m440 -10 c3 -5 -1 -10 -9 -10 -9 0
-16 5 -16 10 0 6 4 10 9 10 6 0 13 -4 16 -10z m42 -16 c-3 -3 -12 -4 -19 -1
-8 3 -5 6 6 6 11 1 17 -2 13 -5z m-2387 -13 c23 -7 22 -8 -12 -12 -27 -4 -38
-1 -38 8 0 14 11 15 50 4z m195 -21 c16 -16 24 -30 17 -30 -6 0 -14 5 -17 10
-3 6 -14 10 -24 10 -21 0 -44 23 -34 33 13 13 30 7 58 -23z m2309 5 c10 -8 22
-12 26 -10 4 3 15 -4 25 -15 15 -17 16 -20 3 -20 -8 0 -27 9 -41 20 -14 11
-31 20 -39 20 -7 0 -20 5 -28 10 -12 8 -10 10 10 10 14 -1 34 -7 44 -15z m230
-80 c-9 -22 -19 -18 -32 10 -21 46 -15 61 13 31 13 -14 22 -33 19 -41z m-2760
8 c4 -27 19 -71 33 -100 15 -29 24 -55 21 -58 -2 -3 -22 11 -42 30 -21 19 -44
35 -51 35 -22 0 -47 45 -43 77 2 23 7 27 26 25 17 -3 25 2 29 17 9 35 20 24
27 -26z m1942 4 c3 -17 15 -38 25 -45 27 -19 24 -35 -3 -21 -13 7 -24 12 -25
11 -8 -4 -64 12 -69 20 -4 5 3 16 15 24 12 9 18 20 15 26 -7 11 15 30 27 22 4
-2 11 -19 15 -37z m-1841 -64 c20 -39 35 -79 33 -89 -5 -28 -74 87 -82 137 -9
54 0 46 49 -48z m1395 73 c0 -2 -7 -6 -15 -10 -8 -3 -15 -1 -15 4 0 6 7 10 15
10 8 0 15 -2 15 -4z m237 -22 c-3 -3 -12 -4 -19 -1 -8 3 -5 6 6 6 11 1 17 -2
13 -5z m960 -16 c-3 -8 -6 -5 -6 6 -1 11 2 17 5 13 3 -3 4 -12 1 -19z m-2442
-43 c11 -19 16 -37 12 -41 -3 -4 -12 5 -18 20 -7 14 -16 26 -21 26 -4 0 -8 7
-8 15 0 25 16 17 35 -20z m1474 9 c2 -2 -19 -4 -47 -4 -29 0 -52 4 -52 10 0 9
88 3 99 -6z m739 -50 c-4 -3 -12 5 -18 18 -12 22 -12 22 6 6 10 -10 15 -20 12
-24z m-934 17 c3 -4 24 -8 46 -8 23 0 46 -5 53 -12 14 -14 -81 -4 -99 11 -6 4
-18 6 -27 2 -8 -3 -18 -1 -22 5 -4 7 4 11 19 11 14 0 27 -4 30 -9z m201 -51
c-3 -5 -12 -10 -20 -10 -8 0 -17 5 -20 10 -4 6 5 10 20 10 15 0 24 -4 20 -10z
m-1725 -61 c22 -24 39 -49 40 -56 0 -6 11 -25 25 -41 32 -39 34 -66 3 -57 -16
4 -19 4 -9 -3 7 -5 11 -15 7 -21 -9 -13 -42 4 -71 38 -11 13 -30 34 -42 48
-13 13 -23 30 -23 38 0 8 -4 16 -9 19 -10 6 -23 65 -17 75 3 4 16 6 31 6 18
-1 39 -16 65 -46z m2490 25 c0 -8 -4 -12 -10 -9 -5 3 -10 10 -10 16 0 5 5 9
10 9 6 0 10 -7 10 -16z m-982 -3 c11 -7 10 -10 -3 -15 -38 -14 -87 -2 -68 18
9 9 56 7 71 -3z m-1378 -21 c0 -5 -4 -10 -9 -10 -6 0 -13 5 -16 10 -3 6 1 10
9 10 9 0 16 -4 16 -10z m952 -77 c12 -15 11 -15 -9 -4 -17 9 -23 20 -22 44 l1
32 8 -28 c5 -16 15 -35 22 -44z m526 60 c-10 -2 -28 -2 -40 0 -13 2 -5 4 17 4
22 1 32 -1 23 -4z m-1399 -29 c6 -15 9 -29 6 -33 -8 -7 -35 28 -35 46 0 22 16
15 29 -13z m1474 -21 c-7 -2 -21 -2 -30 0 -10 3 -4 5 12 5 17 0 24 -2 18 -5z
m-983 -93 c8 -5 12 -11 9 -14 -3 -3 -14 1 -25 9 -21 16 -8 20 16 5z m321 -36
c20 -34 23 -54 9 -54 -12 0 -50 59 -50 78 0 21 23 8 41 -24z m249 17 c0 -6 -4
-13 -10 -16 -5 -3 -10 1 -10 9 0 9 5 16 10 16 6 0 10 -4 10 -9z m-1170 -15 c0
-3 -4 -8 -10 -11 -5 -3 -10 -1 -10 4 0 6 5 11 10 11 6 0 10 -2 10 -4z m1172
-68 c-7 -7 -12 -8 -12 -2 0 14 12 26 19 19 2 -3 -1 -11 -7 -17z m-118 -21 c15
-24 -3 -35 -20 -13 -8 11 -14 24 -14 29 0 13 22 3 34 -16z m-156 -19 c7 -7 12
-21 12 -32 -1 -20 -1 -20 -20 3 -29 34 -22 59 8 29z m-198 -18 c0 -5 -5 -10
-11 -10 -5 0 -7 5 -4 10 3 6 8 10 11 10 2 0 4 -4 4 -10z m-499 -80 c13 -10 19
-19 13 -20 -7 0 -22 9 -35 20 -13 10 -19 19 -13 20 7 0 22 -9 35 -20z"/>
<path d="M6502 816 c6 -14 17 -27 24 -30 18 -7 18 -1 -2 29 -21 32 -37 32 -22
1z"/>
<path d="M3962 2420 c0 -14 2 -19 5 -12 2 6 2 18 0 25 -3 6 -5 1 -5 -13z"/>
<path d="M10805 2020 c-90 -19 -225 -126 -263 -209 -23 -49 -26 -69 -27 -161
0 -87 4 -117 24 -172 14 -38 28 -68 32 -68 4 0 10 -8 13 -17 10 -29 36 -69 37
-58 0 6 4 2 8 -8 4 -10 11 -18 15 -17 5 1 12 -3 15 -9 4 -6 24 -13 46 -16 21
-2 41 -8 44 -12 7 -9 30 -13 91 -16 25 -1 48 -6 52 -12 4 -5 8 1 8 14 0 20 2
21 15 11 11 -9 15 -9 15 -1 0 7 8 11 17 9 11 -2 19 6 24 22 7 24 7 24 9 -5 2
-29 2 -29 15 10 8 22 14 32 14 23 2 -35 21 -17 21 18 0 31 2 35 15 24 12 -10
15 -9 15 5 0 10 8 27 17 37 10 11 20 40 24 66 l7 47 0 -45 c0 -87 4 -84 17 9
17 123 18 304 2 364 -15 53 -50 97 -100 122 -47 24 -187 52 -222 45z"/>
<path d="M10250 1880 c0 -5 5 -10 11 -10 5 0 7 5 4 10 -3 6 -8 10 -11 10 -2 0
-4 -4 -4 -10z"/>
<path d="M3187 1783 c-53 -30 -95 -58 -93 -62 7 -11 178 74 189 94 5 9 7 18 5
19 -1 1 -47 -22 -101 -51z"/>
<path d="M1991 1788 c0 -9 -15 -53 -32 -98 -22 -58 -45 -96 -75 -128 -24 -25
-44 -49 -44 -54 0 -4 -11 -15 -25 -24 l-26 -17 82 -43 c44 -24 85 -41 90 -38
5 3 9 0 9 -7 0 -8 4 -8 15 1 8 7 15 10 15 7 0 -3 12 -2 27 2 21 5 32 3 43 -11
13 -16 17 -16 35 -2 19 14 19 15 2 42 -34 51 -83 157 -97 206 -11 39 -15 45
-21 30 -13 -32 -11 27 2 64 6 17 9 43 6 59 -2 15 -5 21 -6 11z"/>
<path d="M11152 1615 c0 -16 2 -22 5 -12 2 9 2 23 0 30 -3 6 -5 -1 -5 -18z"/>
<path d="M11141 1500 l2 -55 7 45 c4 25 4 49 -1 55 -5 5 -8 -13 -8 -45z"/>
<path d="M3190 1496 c0 -15 21 -26 48 -26 13 0 11 5 -8 20 -30 23 -40 25 -40
6z"/>
<path d="M1258 1447 c-20 -63 -23 -91 -9 -83 12 8 33 90 29 116 -2 17 -8 8
-20 -33z"/>
<path d="M4016 1447 c-7 -36 -46 -68 -125 -103 -37 -16 -54 -34 -33 -34 4 0
31 -32 60 -71 36 -47 58 -69 68 -65 8 3 17 -1 20 -9 9 -22 23 -18 30 9 7 29
41 31 50 4 7 -24 21 -23 34 2 8 14 21 20 48 20 28 0 33 3 22 10 -12 8 -10 10
10 11 14 1 34 3 45 4 11 1 38 3 60 5 l40 2 -50 17 c-27 10 -61 22 -75 28 -36
16 -113 90 -159 151 l-39 53 -6 -34z"/>
<path d="M3202 1420 c2 -25 -1 -55 -5 -66 -11 -33 18 -38 63 -11 47 26 59 19
67 -41 4 -28 13 -46 28 -56 13 -9 29 -32 35 -53 7 -21 15 -42 19 -48 3 -5 4
-18 3 -27 -4 -21 2 -22 29 -8 10 6 19 18 19 26 0 8 4 13 10 9 5 -3 7 -12 3
-20 -3 -8 8 -3 25 12 16 16 53 46 81 68 28 22 69 54 89 70 l38 30 -76 0 c-95
0 -250 28 -298 53 -78 41 -100 57 -116 82 -16 25 -16 25 -14 -20z"/>
<path d="M7690 1375 c0 -14 4 -25 9 -25 4 0 6 11 3 25 -2 14 -6 25 -8 25 -2 0
-4 -11 -4 -25z"/>
<path d="M1162 1298 c-17 -17 -15 -28 3 -22 8 4 15 2 15 -4 0 -6 -18 -13 -40
-17 -23 -4 -54 -18 -71 -32 -16 -14 -86 -54 -155 -89 -68 -34 -120 -65 -114
-69 5 -3 10 -1 10 6 0 8 6 6 18 -4 25 -23 35 -21 27 3 -6 19 -2 20 43 19 27
-1 54 1 60 5 5 3 13 0 15 -6 4 -10 8 -10 15 1 10 14 80 31 142 34 23 2 35 7
36 17 1 8 2 23 3 34 1 13 7 17 20 13 14 -3 19 1 18 17 0 11 3 39 7 61 6 38 5
41 -17 43 -13 1 -29 -4 -35 -10z"/>
<path d="M2620 1274 c0 -3 5 -14 10 -25 9 -15 7 -21 -5 -25 -8 -4 -15 -18 -15
-34 0 -17 -7 -31 -17 -36 -17 -7 -27 -9 -66 -13 -37 -3 -4 -21 38 -21 54 0 92
16 98 41 4 13 14 19 36 19 17 0 31 3 31 7 0 4 -21 26 -47 50 -45 40 -63 51
-63 37z"/>
<path d="M2230 1255 c-10 -12 -10 -15 4 -15 9 0 16 7 16 15 0 8 -2 15 -4 15
-2 0 -9 -7 -16 -15z"/>
<path d="M2300 1199 c0 -5 5 -7 10 -4 6 3 10 8 10 11 0 2 -4 4 -10 4 -5 0 -10
-5 -10 -11z"/>
<path d="M9782 1145 c0 -16 2 -22 5 -12 2 9 2 23 0 30 -3 6 -5 -1 -5 -18z"/>
<path d="M2400 1148 c19 -5 40 -14 46 -19 6 -5 19 -6 29 -3 13 5 8 10 -22 20
-21 8 -49 13 -63 13 -21 -1 -19 -2 10 -11z"/>
<path d="M4010 1101 c0 -16 -7 -34 -14 -41 -8 -6 -20 -28 -27 -48 -6 -20 -29
-73 -50 -117 -21 -44 -54 -127 -72 -184 -19 -58 -45 -116 -58 -130 -46 -49
-76 -72 -105 -77 -34 -6 -50 -19 -36 -28 6 -3 13 -2 17 4 8 13 45 13 45 0 0
-5 20 -9 46 -8 30 2 48 -2 54 -12 7 -12 12 -11 30 5 18 16 23 17 31 5 7 -10 7
1 2 35 -10 65 -7 135 12 215 18 84 36 125 90 214 39 64 43 79 44 134 0 34 -2
62 -5 62 -2 0 -4 -13 -4 -29z"/>
<path d="M7847 1106 c-4 -15 -6 -31 -2 -34 10 -10 16 6 13 35 l-3 28 -8 -29z"/>
<path d="M4090 1104 c0 -8 5 -12 10 -9 6 3 10 10 10 16 0 5 -4 9 -10 9 -5 0
-10 -7 -10 -16z"/>
<path d="M9760 916 c0 -9 5 -16 10 -16 6 0 10 4 10 9 0 6 -4 13 -10 16 -5 3
-10 -1 -10 -9z"/>
<path d="M2079 688 c-23 -59 -95 -162 -158 -225 -64 -66 -74 -81 -41 -63 11 6
26 8 32 4 6 -4 8 -3 4 4 -3 6 6 13 23 17 15 3 42 22 59 40 17 19 34 35 40 35
5 0 14 12 20 26 7 14 16 23 21 20 4 -3 14 6 21 19 7 14 17 25 22 25 5 0 6 10
3 23 -3 12 -3 18 2 12 4 -5 19 -19 33 -30 l24 -20 -15 25 c-9 14 -28 46 -43
73 -15 26 -29 47 -31 47 -1 0 -8 -15 -16 -32z"/>
<path d="M4501 636 c-13 -45 -34 -100 -47 -123 -22 -37 -103 -123 -150 -158
-17 -12 -9 -13 62 -11 47 1 88 7 97 14 8 7 32 13 53 15 22 1 41 5 44 9 3 3 24
3 47 -1 55 -10 58 2 17 59 -45 63 -94 165 -94 194 0 14 6 31 14 39 12 12 12
16 -3 29 -16 13 -19 9 -40 -66z"/>
<path d="M2735 653 c7 -36 25 -94 78 -248 l24 -70 44 3 c23 1 63 12 88 23 44
20 107 34 201 45 25 2 67 12 94 21 27 9 65 16 83 17 19 0 37 6 41 12 7 12 46
28 72 30 8 0 29 7 46 14 l31 13 -71 83 -71 83 -12 -42 c-15 -52 -60 -107 -121
-148 -130 -87 -293 -90 -403 -5 -44 33 -58 56 -94 159 -20 57 -40 64 -30 10z"/>
<path d="M8110 336 c0 -9 5 -16 10 -16 6 0 10 4 10 9 0 6 -4 13 -10 16 -5 3
-10 -1 -10 -9z"/>
</g>
</svg>
